PathFileType	4	(X/Y/Z)	1H_nor_fast_right.trc
DataRate	CameraRate	NumFrames	NumMarkers	Units	OrigDataRate	OrigDataStartFrame	OrigNumFrames
250.00	250.00	10	18	mm	250.00	3463	9233
Frame#	Time	c7	r_should	r_elb_m	clavicle	r_upa	r_wri_m	l_upa	l_elb_l	l_low	l_wri_l	l_met	l_elb_m	r_elb_l	l_should	r_low	r_wri_l	r_met	l_wri_m
	X1	Y1	Z1	X2	Y2	Z2	X3	Y3	Z3	X4	Y4	Z4	X5	Y5	Z5	X6	Y6	Z6	X7	Y7	Z7	X8	Y8	Z8	X9	Y9	Z9	X10	Y10	Z10	X11	Y11	Z11	X12	Y12	Z12	X13	Y13	Z13	X14	Y14	Z14	X15	Y15	Z15	X16	Y16	Z16	X17	Y17	Z17	X18	Y18	Z18
3463	13.84800	1072.77283	1424.59558	131.64639	1137.42114	1367.98218	280.81232	1095.55676	1067.95874	390.22485	1184.42725	1289.26611	107.92918	1166.47876	1180.50024	376.79800	1224.64111	886.19360	330.66006	1077.10742	1152.70825	-110.60310	1081.84387	1045.33252	-129.25246	1089.62476	922.46869	-124.14652	1110.80994	806.02802	-101.83422	1096.89856	727.46582	-144.48634	1037.32043	1033.28943	-38.40909	1170.22913	1108.23779	408.44708	1085.41699	1366.28918	-48.93875	1221.34375	1011.64832	352.83432	1264.03027	932.49841	283.55811	1317.73071	873.50812	282.00473	1033.98328	799.52527	-104.18076
3464	13.85200	1072.57043	1424.49536	131.63713	1137.29138	1368.07043	280.79361	1095.39172	1068.42371	390.47308	1184.44800	1289.27722	107.98129	1166.22485	1180.81213	377.07532	1225.43188	888.38391	328.89383	1077.25659	1152.65991	-110.53953	1082.00317	1045.28271	-129.14476	1089.83008	922.40631	-123.99789	1111.03052	805.99341	-101.63413	1097.15991	727.41553	-144.26833	1037.46167	1033.25098	-38.31743	1169.86584	1108.90503	408.77628	1085.47571	1366.25842	-48.94471	1221.44727	1013.35571	352.40192	1263.74438	935.97253	282.19205	1318.43054	876.64020	279.84589	1034.20850	799.45380	-103.98732
3465	13.85600	1072.12988	1424.26514	131.62758	1137.16040	1368.16638	280.77621	1095.22375	1068.89734	390.71844	1184.46387	1289.28735	108.02991	1165.98486	1181.13989	377.34891	1226.23022	890.60010	327.14523	1077.39978	1152.61426	-110.47607	1082.15686	1045.23035	-129.03934	1090.02466	922.35468	-123.84336	1111.25916	805.94836	-101.43274	1097.41589	727.36810	-144.06023	1037.60095	1033.21484	-38.22373	1169.51758	1109.59021	409.10144	1085.54016	1366.22559	-48.95183	1221.56067	1015.06580	351.96939	1265.13086	938.09686	280.92307	1319.13599	879.83289	277.69971	1034.46582	799.37128	-103.78677
3466	13.86000	1072.01086	1424.20410	131.61124	1137.02747	1368.26489	280.75089	1095.07422	1069.37549	390.94711	1184.47754	1289.29041	108.08373	1165.75061	1181.46448	377.61362	1227.02087	892.82562	325.35886	1077.53625	1152.56128	-110.41149	1082.31445	1045.16931	-128.93420	1090.20618	922.30054	-123.69610	1111.47791	805.89355	-101.22610	1097.66528	727.31726	-143.85028	1037.73352	1033.17944	-38.13580	1169.17749	1110.28967	409.42389	1085.60938	1366.19299	-48.96282	1221.68994	1016.80255	351.53220	1265.19153	941.33020	279.61798	1319.82336	883.05774	275.56122	1034.72119	799.29877	-103.59511
3467	13.86400	1071.96875	1424.18591	131.57831	1136.88464	1368.36963	280.72131	1094.96326	1069.84839	391.16019	1184.48804	1289.29163	108.13454	1165.52979	1181.77979	377.87451	1227.81396	895.08789	323.59796	1077.66260	1152.50549	-110.35223	1082.46753	1045.11462	-128.83287	1090.38147	922.23834	-123.55514	1111.69470	805.82391	-101.00596	1097.92432	727.26282	-143.63840	1037.86365	1033.14685	-38.04390	1168.85278	1110.97461	409.72064	1085.68250	1366.16357	-48.98284	1221.82556	1018.55341	351.09915	1264.96082	944.85608	278.32983	1320.49536	886.32703	273.43881	1034.95020	799.23309	-103.42000
3468	13.86800	1071.94641	1424.17810	131.53275	1136.73328	1368.47754	280.68924	1094.86938	1070.29675	391.34918	1184.49951	1289.29138	108.18587	1165.30957	1182.09766	378.12625	1228.61365	897.40411	321.84619	1077.78650	1152.44153	-110.29961	1082.61621	1045.05371	-128.74081	1090.55872	922.17365	-123.41125	1111.91821	805.76050	-100.79370	1098.18665	727.20673	-143.42543	1037.98816	1033.12024	-37.95083	1168.53613	1111.66479	409.98392	1085.76392	1366.13416	-49.00645	1221.95825	1020.32397	350.66486	1265.77002	947.53638	277.02966	1321.16992	889.63770	271.30682	1035.16455	799.17529	-103.25304
3469	13.87200	1071.93445	1424.17358	131.48068	1136.57922	1368.58752	280.65601	1094.28271	1070.81506	391.58087	1184.51270	1289.29285	108.22595	1165.10229	1182.41968	378.36612	1229.44214	899.78680	320.10883	1077.90454	1152.38074	-110.25072	1082.75696	1044.99451	-128.64841	1090.73840	922.11328	-123.26754	1112.12646	805.70319	-100.59850	1098.44250	727.14502	-143.20833	1038.11133	1033.08667	-37.86631	1168.24097	1112.36987	410.24246	1085.85461	1366.10229	-49.03339	1222.09619	1022.10736	350.21548	1265.13660	951.42377	275.76215	1321.86414	892.98096	269.17792	1035.36682	799.12292	-103.09319
3470	13.87600	1071.91870	1424.16809	131.42493	1136.40906	1368.69385	280.61673	1093.06592	1071.44958	391.87848	1184.52844	1289.29309	108.26796	1164.91272	1182.74243	378.60544	1230.26013	902.17914	318.35593	1078.02222	1152.32288	-110.19968	1082.89331	1044.93213	-128.55341	1090.91748	922.05414	-123.12946	1112.31873	805.65155	-100.40797	1098.68823	727.08240	-142.99255	1038.23987	1033.05627	-37.77957	1167.96619	1113.06958	410.50372	1085.95056	1366.07092	-49.06215	1222.25183	1023.90314	349.75897	1265.27600	954.70953	274.47516	1322.54089	896.35132	267.04596	1035.58081	799.06653	-102.93725
3471	13.88000	1071.90222	1424.16577	131.36485	1136.23621	1368.80042	280.57550	1092.66357	1071.95483	392.08914	1184.54480	1289.30200	108.31187	1164.73779	1183.08447	378.83737	1231.08398	904.58240	316.60773	1078.14844	1152.26282	-110.14494	1083.04333	1044.86401	-128.45964	1091.09888	922.00195	-122.98962	1112.51123	805.61700	-100.22680	1098.93250	727.02478	-142.78587	1038.36316	1033.03320	-37.68679	1167.71960	1113.76465	410.73935	1086.04895	1366.04260	-49.09010	1222.42798	1025.71252	349.31628	1265.57886	957.85687	273.22824	1323.22241	899.77942	264.94211	1035.82166	798.99365	-102.77480
3472	13.88400	1071.88916	1424.17041	131.31026	1136.06836	1368.90503	280.53406	1092.48608	1072.43262	392.27032	1184.56580	1289.31787	108.35327	1164.57385	1183.43750	379.05475	1231.91296	907.01697	314.87839	1078.28040	1152.20776	-110.09105	1083.19543	1044.80554	-128.36342	1091.29077	921.94678	-122.84332	1112.72668	805.57935	-100.02789	1099.18091	726.97424	-142.58267	1038.50024	1033.00732	-37.60171	1167.49585	1114.47314	410.96152	1086.14673	1366.01794	-49.11778	1222.58777	1027.54407	348.87271	1265.95068	960.99487	271.95810	1323.87708	903.25256	262.85489	1036.05786	798.92993	-102.60664
